<?xml version="1.0" standalone="no"?>
<!DOCTYPE svg PUBLIC "-//W3C//DTD SVG 20010904//EN"
 "http://www.w3.org/TR/2001/REC-SVG-20010904/DTD/svg10.dtd">
<svg version="1.0" xmlns="http://www.w3.org/2000/svg"
 width="4263.000000pt" height="1360.000000pt" viewBox="0 0 4263.000000 1360.000000"
 preserveAspectRatio="xMidYMid meet">
<metadata>
Created by potrace 1.15, written by Peter Selinger 2001-2017
</metadata>
<g transform="translate(0.000000,1360.000000) scale(0.100000,-0.100000)"
fill="#000000" stroke="none">
<path d="M5415 11974 c-462 -69 -832 -284 -1136 -662 -135 -168 -332 -496
-363 -608 -8 -27 -39 -110 -69 -184 -31 -74 -76 -205 -102 -290 -26 -85 -55
-178 -66 -205 -40 -105 -104 -437 -133 -695 -49 -425 -47 -830 4 -1190 20
-133 74 -378 88 -392 4 -4 78 36 165 88 162 98 438 242 633 331 l111 51 6 258
c15 620 98 1144 248 1581 50 145 142 362 157 372 5 3 31 44 57 91 278 494 664
803 1158 930 197 50 243 55 527 54 225 0 282 -3 380 -22 63 -11 116 -19 118
-17 5 4 -221 131 -333 187 -288 144 -581 246 -860 299 -87 17 -157 22 -335 24
-124 2 -238 1 -255 -1z"/>
<path d="M6970 11863 c0 -5 14 -22 31 -39 45 -43 300 -322 405 -444 768 -892
1415 -1997 1828 -3120 117 -318 88 -270 267 -447 670 -661 1241 -1519 1625
-2441 289 -693 460 -1347 536 -2047 20 -187 17 -805 -5 -969 -53 -392 -136
-671 -283 -956 -91 -176 -178 -295 -329 -446 -195 -196 -396 -321 -655 -407
-192 -64 -452 -107 -647 -107 l-93 0 81 83 c86 86 190 213 299 363 228 312
441 820 573 1364 92 378 162 846 185 1245 12 194 7 997 -7 1175 -14 190 -39
452 -47 502 l-6 37 -94 -35 c-52 -19 -98 -34 -102 -34 -4 0 -20 46 -36 103
-150 524 -418 1223 -715 1857 -128 272 -419 836 -397 768 134 -419 269 -953
346 -1373 l31 -170 68 -115 c38 -63 91 -158 120 -211 l51 -95 -38 -21 c-20
-12 -57 -27 -81 -34 l-43 -13 6 -60 c41 -398 56 -627 63 -1011 18 -1049 -135
-2014 -444 -2800 -94 -239 -248 -542 -318 -628 -14 -18 -67 -90 -118 -162
-109 -153 -336 -387 -464 -478 -258 -183 -526 -267 -812 -254 -204 9 -361 50
-570 148 -57 27 -106 47 -108 45 -7 -7 142 -117 282 -209 741 -486 1428 -556
2016 -206 l36 21 129 -31 c988 -237 1742 17 2188 739 625 1010 569 2889 -146
4870 -735 2036 -2026 3920 -3618 5281 -186 159 -391 322 -680 540 -287 217
-310 233 -310 222z"/>
<path d="M33670 9243 c-105 -43 -141 -176 -69 -257 38 -44 78 -60 138 -54 191
19 186 301 -6 314 -26 2 -55 1 -63 -3z"/>
<path d="M39454 9231 c-109 -49 -116 -218 -12 -281 71 -43 174 -18 219 52 16
26 19 46 17 93 -4 72 -25 106 -84 135 -50 25 -87 25 -140 1z"/>
<path d="M20930 8195 l0 -1015 100 0 100 0 0 1015 0 1015 -100 0 -100 0 0
-1015z"/>
<path d="M25600 8805 l0 -405 -84 84 c-92 93 -194 151 -316 183 -98 25 -274
22 -375 -6 -259 -72 -468 -285 -536 -546 -26 -101 -28 -276 -5 -385 45 -214
211 -423 411 -520 102 -49 199 -70 322 -70 201 1 360 63 502 196 l81 76 0
-116 0 -116 100 0 100 0 0 1015 0 1015 -100 0 -100 0 0 -405z m-420 -327 c96
-23 172 -67 255 -152 92 -93 135 -171 159 -289 30 -143 14 -277 -49 -402 -46
-93 -104 -158 -191 -215 -102 -67 -195 -95 -314 -95 -124 0 -212 27 -315 96
-119 80 -211 215 -246 359 -19 77 -16 212 5 285 93 314 382 486 696 413z"/>
<path d="M28250 8805 l0 -405 -78 77 c-123 124 -243 183 -412 204 -217 26
-428 -41 -588 -187 -177 -161 -255 -339 -255 -579 0 -173 37 -307 119 -430
149 -226 368 -345 631 -345 210 1 363 63 521 214 l62 59 0 -116 0 -117 100 0
100 0 0 1015 0 1015 -100 0 -100 0 0 -405z m-420 -327 c177 -41 343 -203 403
-393 28 -92 30 -261 3 -350 -56 -189 -191 -322 -396 -391 -76 -26 -234 -26
-310 0 -159 53 -280 157 -350 298 -90 184 -91 352 -1 533 124 248 377 367 651
303z"/>
<path d="M32290 9205 c-8 -2 -49 -9 -90 -15 -385 -63 -720 -368 -814 -741 -40
-163 -39 -395 3 -561 93 -364 368 -637 738 -730 78 -20 112 -23 303 -22 200 0
222 2 312 26 191 52 362 151 489 285 39 41 69 77 66 79 -2 2 -40 31 -83 63
l-79 60 -75 -73 c-122 -118 -239 -185 -395 -227 -115 -31 -345 -31 -460 0
-304 82 -527 301 -606 596 -26 97 -31 305 -10 400 103 466 569 750 1050 640
164 -38 303 -117 426 -243 l73 -74 81 62 81 61 -19 27 c-10 15 -45 54 -78 86
-201 204 -470 308 -788 305 -60 -1 -117 -3 -125 -4z"/>
<path d="M21680 8920 l0 -270 -130 0 -130 0 0 -90 0 -90 130 0 130 0 0 -645 0
-645 95 0 95 0 0 645 0 645 150 0 150 0 0 90 0 90 -150 0 -150 0 0 270 0 270
-95 0 -95 0 0 -270z"/>
<path d="M14320 8170 l0 -990 105 0 105 0 0 480 0 480 395 0 395 0 0 105 0
105 -395 0 -395 0 0 305 0 305 395 0 395 0 0 100 0 100 -500 0 -500 0 0 -990z"/>
<path d="M16207 8679 c-253 -33 -492 -221 -591 -466 -58 -142 -72 -357 -32
-508 62 -236 258 -449 485 -528 73 -26 104 -31 212 -35 144 -5 246 15 357 69
68 33 195 129 230 174 l22 28 0 -117 0 -116 100 0 100 0 0 735 0 735 -100 0
-100 0 0 -124 0 -124 -62 65 c-117 122 -248 190 -413 213 -80 11 -114 11 -208
-1z m283 -205 c186 -53 344 -217 394 -410 19 -72 21 -220 5 -296 -44 -211
-225 -387 -444 -433 -88 -18 -142 -18 -226 -1 -259 55 -459 304 -459 573 0
100 15 164 61 261 84 176 248 296 444 326 48 7 165 -4 225 -20z"/>
<path d="M18135 8679 c-440 -55 -738 -427 -694 -865 31 -300 253 -559 554
-646 70 -20 102 -23 250 -23 194 0 256 12 390 75 101 47 192 115 250 188 24
31 45 60 45 64 0 4 -34 30 -75 58 l-75 51 -58 -59 c-76 -79 -167 -136 -266
-169 -70 -23 -98 -26 -206 -27 -109 0 -134 4 -200 26 -143 50 -244 126 -320
241 -83 126 -116 315 -81 457 39 156 168 314 311 383 254 121 555 73 748 -119
l73 -73 74 47 c41 26 75 51 75 56 0 17 -72 106 -122 151 -103 93 -279 166
-443 185 -102 11 -131 11 -230 -1z"/>
<path d="M23029 8680 c-86 -12 -197 -50 -267 -92 -80 -47 -205 -170 -262 -255
-28 -43 -61 -114 -81 -171 -31 -92 -33 -105 -33 -242 -1 -121 3 -158 22 -223
60 -210 207 -389 396 -482 122 -61 208 -78 361 -72 194 7 333 64 478 197 l67
62 0 -111 0 -111 100 0 100 0 0 735 0 735 -100 0 -100 0 0 -122 0 -123 -87 85
c-132 128 -258 183 -443 194 -47 2 -115 1 -151 -4z m281 -206 c187 -53 344
-215 395 -409 21 -78 21 -241 0 -319 -41 -154 -150 -287 -290 -357 -179 -88
-352 -89 -516 -3 -136 71 -241 197 -290 345 -20 62 -24 93 -23 189 1 98 4 125
26 182 81 216 254 359 473 392 48 7 165 -4 225 -20z"/>
<path d="M29435 8680 c-88 -11 -200 -49 -273 -92 -74 -43 -189 -157 -240 -236
-286 -443 -76 -1055 408 -1189 91 -25 358 -25 447 -1 136 38 288 135 366 234
44 57 117 172 117 186 0 6 -151 88 -164 88 -2 0 -23 -30 -47 -67 -111 -170
-266 -263 -468 -279 -260 -21 -498 157 -566 421 -8 32 -15 79 -15 102 l0 43
656 0 657 0 -6 83 c-9 116 -39 224 -89 320 -58 114 -200 256 -308 310 -135 67
-317 96 -475 77z m255 -202 c112 -26 241 -109 305 -196 28 -38 95 -184 95
-207 0 -3 -241 -5 -536 -5 l-535 0 6 23 c4 12 24 60 46 106 107 228 356 340
619 279z"/>
<path d="M34777 8679 c-157 -21 -299 -90 -407 -198 -218 -218 -292 -544 -191
-839 65 -188 203 -351 364 -430 116 -56 174 -67 362 -67 160 0 175 2 250 28
167 58 298 162 394 312 28 44 51 85 51 92 0 10 -144 93 -160 93 -3 0 -23 -28
-45 -62 -22 -35 -65 -88 -96 -120 -93 -95 -272 -168 -414 -168 -277 0 -511
220 -541 508 l-7 62 657 0 656 0 0 54 c0 108 -44 274 -96 365 -103 177 -275
309 -464 354 -85 21 -228 28 -313 16z m253 -201 c152 -36 294 -148 354 -280
18 -40 36 -85 40 -100 l6 -28 -535 0 -536 0 6 23 c4 12 25 59 46 105 81 168
214 260 429 296 34 6 134 -3 190 -16z"/>
<path d="M36645 8680 c-149 -22 -249 -74 -367 -191 l-88 -86 0 124 0 123 -100
0 -100 0 0 -735 0 -735 100 0 100 0 0 324 c0 506 17 636 98 762 123 189 343
276 544 214 111 -34 185 -118 224 -256 15 -51 18 -126 22 -551 l4 -493 99 0
99 0 0 424 c0 427 -8 581 -36 691 -69 268 -317 427 -599 385z"/>
<path d="M38302 8679 c-86 -10 -230 -57 -304 -98 -178 -101 -316 -279 -370
-478 -30 -113 -30 -298 0 -406 72 -254 274 -453 538 -529 69 -20 100 -23 254
-22 162 0 182 2 265 28 142 43 217 88 323 193 50 50 92 96 92 102 0 6 -34 34
-77 61 l-76 50 -66 -65 c-79 -80 -150 -124 -256 -161 -71 -25 -94 -28 -205
-28 -108 1 -136 4 -206 27 -204 67 -356 237 -400 447 -66 313 147 623 471 685
225 43 439 -18 591 -170 l73 -73 73 45 c40 25 75 47 77 49 9 8 -74 117 -118
156 -109 96 -279 167 -446 187 -100 12 -128 12 -233 0z"/>
<path d="M40588 8679 c-230 -31 -458 -198 -563 -412 -55 -113 -74 -184 -82
-307 -19 -315 148 -611 421 -746 110 -54 198 -74 329 -74 209 0 362 62 523
212 l64 60 0 -116 0 -116 95 0 95 0 0 735 0 735 -95 0 -95 0 0 -131 0 -130
-41 48 c-58 67 -141 136 -208 172 -116 61 -297 90 -443 70z m297 -210 c166
-51 308 -188 366 -354 100 -286 -19 -599 -276 -726 -179 -88 -352 -89 -516 -3
-243 128 -367 405 -299 669 83 325 410 512 725 414z"/>
<path d="M42136 8680 c-127 -22 -253 -124 -297 -238 -31 -81 -31 -214 1 -297
34 -89 132 -182 280 -264 276 -153 320 -198 320 -321 0 -63 -25 -114 -80 -164
-119 -107 -288 -91 -431 41 l-58 54 -34 -38 c-83 -92 -89 -101 -77 -122 16
-30 113 -106 173 -135 165 -80 369 -75 507 14 65 41 113 98 153 180 30 61 32
71 32 175 0 102 -2 115 -31 175 -50 105 -127 171 -334 285 -127 69 -192 117
-226 167 -73 105 -37 230 83 285 99 45 215 18 334 -79 l56 -46 64 65 64 64
-53 49 c-59 55 -160 115 -226 135 -60 18 -162 25 -220 15z"/>
<path d="M19260 8268 c0 -504 16 -670 75 -803 49 -111 159 -221 270 -270 178
-79 455 -74 632 12 87 42 192 150 236 243 67 141 70 168 74 713 l4 487 -100 0
-101 0 0 -442 c-1 -477 -6 -562 -44 -644 -127 -277 -564 -317 -755 -68 -79
104 -91 200 -91 750 l0 404 -100 0 -100 0 0 -382z"/>
<path d="M33620 7915 l0 -735 100 0 100 0 0 735 0 735 -100 0 -100 0 0 -735z"/>
<path d="M39430 7915 l0 -735 95 0 95 0 0 735 0 735 -95 0 -95 0 0 -735z"/>
<path d="M5145 6962 c-629 -256 -1036 -571 -1307 -1012 -66 -106 -141 -267
-134 -286 10 -27 128 -204 135 -204 4 0 15 17 25 38 26 54 112 197 164 272
250 359 540 616 908 803 129 65 344 150 462 183 34 9 62 22 62 28 0 22 -105
256 -115 255 -5 0 -95 -35 -200 -77z"/>
<path d="M37909 5868 c-67 -95 -132 -187 -145 -205 -13 -17 -24 -34 -24 -37 0
-3 44 -6 98 -6 l97 0 151 158 c82 86 171 181 198 210 l49 52 -151 0 -151 0
-122 -172z"/>
<path d="M36695 5940 c-58 -29 -79 -63 -83 -135 -2 -47 1 -67 17 -93 30 -47
77 -72 136 -72 95 0 155 62 155 159 0 69 -28 117 -84 142 -53 24 -92 24 -141
-1z"/>
<path d="M15560 5517 l0 -404 -83 82 c-92 91 -196 151 -317 182 -94 24 -272
21 -373 -6 -259 -68 -475 -292 -538 -557 -28 -119 -23 -322 11 -429 45 -145
141 -283 262 -379 133 -107 277 -156 452 -156 215 1 381 68 529 215 l57 58 0
-117 0 -116 100 0 100 0 0 1015 0 1015 -100 0 -100 0 0 -403z m-384 -338 c160
-49 313 -203 365 -368 29 -92 36 -244 15 -335 -51 -218 -222 -384 -443 -431
-183 -39 -356 12 -500 148 -122 116 -183 260 -183 434 0 392 372 667 746 552z"/>
<path d="M18700 4905 l0 -1015 100 0 100 0 0 1015 0 1015 -100 0 -100 0 0
-1015z"/>
<path d="M22755 5909 c-230 -34 -422 -128 -587 -287 -227 -219 -333 -517 -300
-841 28 -277 128 -489 313 -666 128 -122 258 -194 438 -243 90 -24 110 -26
316 -26 193 0 229 3 295 21 207 58 358 141 488 268 45 45 82 87 82 93 0 6 -35
38 -77 71 l-77 60 -76 -73 c-91 -86 -146 -126 -243 -171 -256 -122 -599 -107
-841 37 -88 52 -214 172 -271 258 -153 230 -177 560 -60 816 130 285 404 469
731 491 167 11 363 -35 508 -119 41 -24 109 -79 161 -130 49 -48 91 -88 93
-88 11 0 152 117 152 127 0 19 -128 150 -200 205 -129 98 -313 172 -495 198
-83 11 -266 11 -350 -1z"/>
<path d="M32260 5630 l0 -270 -125 0 -125 0 0 -90 0 -90 125 0 125 0 0 -645 0
-645 100 0 100 0 0 645 0 645 150 0 150 0 0 90 0 90 -150 0 -150 0 0 270 0
270 -100 0 -100 0 0 -270z"/>
<path d="M16752 5390 c-189 -26 -346 -113 -459 -253 -133 -164 -185 -313 -185
-527 1 -222 82 -414 243 -572 84 -83 211 -148 338 -174 125 -25 328 -16 436
19 160 52 285 150 385 298 33 50 60 96 60 104 0 11 -139 95 -158 95 -4 0 -24
-27 -45 -59 -87 -135 -174 -205 -312 -253 -218 -75 -424 -32 -575 121 -36 36
-80 94 -98 128 -35 66 -72 195 -72 250 l0 33 656 0 657 0 -6 93 c-11 158 -61
295 -152 416 -95 125 -258 232 -405 265 -85 19 -229 27 -308 16z m213 -195
c171 -30 315 -134 385 -279 22 -44 42 -93 46 -108 l6 -28 -535 0 -536 0 19 56
c68 198 229 334 429 363 81 12 97 12 186 -4z"/>
<path d="M19862 5389 c-292 -38 -557 -281 -629 -577 -21 -90 -21 -284 0 -374
45 -186 152 -346 303 -454 128 -92 265 -134 431 -134 211 1 362 63 521 214
l62 59 0 -116 0 -117 100 0 100 0 0 735 0 735 -100 0 -100 0 0 -126 0 -125
-78 78 c-122 122 -242 182 -404 203 -92 11 -115 11 -206 -1z m268 -201 c133
-31 296 -159 358 -283 154 -308 46 -667 -244 -809 -96 -47 -152 -60 -259 -60
-155 -1 -283 52 -390 159 -190 192 -234 452 -116 690 124 249 377 367 651 303z"/>
<path d="M24750 5390 c-36 -5 -102 -20 -146 -34 -219 -70 -417 -282 -486 -521
-29 -104 -32 -314 -5 -415 57 -211 218 -412 401 -499 114 -55 174 -66 351 -65
146 0 167 3 240 27 230 76 412 266 487 507 20 66 23 95 23 235 -1 144 -3 167
-27 237 -84 251 -285 447 -521 507 -89 23 -229 32 -317 21z m289 -218 c162
-63 298 -207 352 -374 34 -104 34 -262 -1 -367 -87 -267 -337 -427 -609 -390
-191 27 -351 147 -431 324 -38 85 -53 157 -53 255 1 170 53 290 178 416 82 83
146 122 242 150 73 21 253 13 322 -14z"/>
<path d="M26568 5390 c-148 -25 -269 -98 -369 -223 l-39 -49 0 121 0 121 -100
0 -100 0 0 -735 0 -735 99 0 99 0 5 423 c5 465 10 512 69 635 40 86 126 170
215 213 91 44 209 52 294 20 104 -39 174 -124 199 -241 8 -36 14 -224 17 -552
l5 -498 98 0 98 0 5 433 c4 468 8 508 62 621 32 68 108 153 173 194 179 114
424 67 507 -98 40 -79 45 -147 45 -662 l0 -488 105 0 105 0 0 378 c-1 423 -11
645 -34 745 -107 458 -686 521 -965 105 l-39 -57 -37 77 c-49 98 -114 163
-208 207 -102 49 -202 63 -309 45z"/>
<path d="M29222 5390 c-152 -21 -276 -83 -389 -197 l-83 -82 0 125 0 124 -100
0 -100 0 0 -1005 0 -1005 100 0 100 0 0 385 0 385 60 -60 c78 -76 184 -142
285 -176 115 -39 295 -45 415 -15 266 66 481 280 551 548 29 110 29 297 0 408
-68 260 -284 481 -533 544 -91 23 -223 32 -306 21z m248 -206 c267 -75 454
-367 411 -644 -52 -333 -366 -563 -680 -496 -224 47 -395 213 -447 432 -22 93
-14 254 16 341 39 112 126 225 228 295 129 89 311 116 472 72z"/>
<path d="M33617 5389 c-233 -32 -441 -180 -560 -399 -57 -104 -78 -189 -84
-326 -11 -247 53 -419 221 -592 84 -88 182 -150 291 -189 74 -25 92 -28 230
-28 139 0 157 2 239 29 101 33 209 100 291 179 l55 53 0 -113 0 -113 100 0
100 0 0 735 0 735 -100 0 -100 0 0 -125 0 -126 -62 66 c-132 141 -274 207
-473 219 -44 3 -110 0 -148 -5z m283 -205 c187 -53 350 -224 395 -415 19 -83
19 -229 0 -304 -54 -211 -225 -375 -440 -420 -87 -18 -142 -18 -226 -1 -209
45 -386 219 -444 436 -19 71 -19 210 0 283 54 207 234 387 425 426 30 6 64 13
75 15 34 8 157 -4 215 -20z"/>
<path d="M35547 5390 c-443 -55 -751 -442 -697 -874 23 -183 79 -295 220 -436
157 -158 299 -218 538 -227 246 -10 437 45 591 171 51 42 141 143 141 158 0 4
-34 30 -75 58 l-75 51 -58 -59 c-76 -79 -167 -136 -266 -169 -70 -23 -98 -26
-206 -27 -114 0 -133 3 -210 30 -47 17 -112 47 -143 68 -173 115 -279 333
-262 536 12 148 71 266 185 373 243 230 647 221 887 -19 l74 -74 72 46 c39 26
74 48 76 50 7 6 -59 100 -96 136 -94 89 -229 159 -376 193 -82 18 -235 26
-320 15z"/>
<path d="M37834 5389 c-288 -37 -519 -233 -621 -524 -25 -74 -27 -91 -28 -240
0 -140 3 -169 23 -235 75 -241 256 -430 487 -507 74 -25 93 -27 250 -27 161
-1 174 1 250 27 97 35 162 71 237 134 117 98 215 253 255 403 27 101 24 311
-5 414 -44 152 -131 286 -254 392 -107 91 -238 147 -388 164 -95 11 -118 11
-206 -1z m245 -204 c94 -25 162 -66 246 -150 89 -88 133 -161 160 -265 21 -78
23 -215 5 -290 -55 -235 -239 -407 -471 -439 -272 -37 -522 123 -609 390 -35
106 -35 263 -1 368 60 183 219 338 394 386 68 18 208 18 276 0z"/>
<path d="M39692 5389 c-134 -20 -255 -86 -368 -199 l-74 -74 0 122 0 122 -100
0 -100 0 0 -735 0 -735 99 0 99 0 5 428 c5 475 8 498 73 623 44 83 145 182
226 221 177 86 392 52 490 -77 85 -112 98 -218 98 -797 l0 -398 100 0 100 0 0
378 c0 565 -18 736 -87 864 -104 191 -326 293 -561 257z"/>
<path d="M30400 4968 c0 -416 9 -573 41 -695 53 -208 215 -364 425 -408 101
-22 284 -19 376 4 212 54 360 200 413 405 29 115 35 225 35 653 l0 433 -100 0
-100 0 0 -433 c0 -488 -6 -573 -51 -664 -139 -286 -610 -299 -772 -21 -58 97
-60 121 -65 641 l-4 477 -99 0 -99 0 0 -392z"/>
<path d="M36670 4625 l0 -735 95 0 95 0 0 735 0 735 -95 0 -95 0 0 -735z"/>
<path d="M7215 4509 c-330 -125 -746 -284 -924 -351 l-324 -123 -92 -82 c-149
-131 -257 -290 -316 -463 -31 -90 -38 -287 -15 -392 21 -94 71 -207 129 -295
90 -136 246 -269 345 -296 l43 -12 -6 -60 c-4 -33 -15 -104 -25 -158 -61 -320
-183 -540 -397 -717 -54 -45 -99 -85 -101 -89 -1 -4 25 -130 58 -281 33 -150
60 -275 60 -278 0 -3 390 -3 866 0 620 4 869 9 873 17 4 6 44 174 90 374 45
199 83 363 84 363 1 1 193 54 427 119 234 64 455 125 493 136 l67 20 0 304 0
305 44 71 45 72 -65 79 c-35 44 -64 85 -64 90 0 6 23 54 52 106 l51 96 -36
149 -37 149 64 72 c35 39 105 116 155 171 49 55 87 103 83 106 -4 3 -205 166
-448 362 l-441 356 -28 78 c-65 180 -87 233 -98 232 -7 0 -282 -104 -612 -230z
m445 -72 c67 -82 129 -196 166 -305 31 -89 32 -98 16 -104 -28 -11 -662 -140
-672 -136 -13 4 422 609 435 605 6 -2 30 -29 55 -60z"/>
</g>
</svg>
